<svg width="24" height="24" fill="none" xmlns="http://www.w3.org/2000/svg">
<g clip-path="url(#a)" stroke="#000" stroke-linecap="round" stroke-linejoin="round">
<path d="M9.44 17.7v-4.33c0-.85 2.13-1.28 2.13-1.28s2.13.43 2.13 1.28v4.33h2.05V9.96H7.4v7.74h2.05-.01ZM15.75 7.27H7.4v2.69h8.35V7.27Z"/>
<path d="M17.42 17.7v-3.54c0-.7 1.74-1.05 1.74-1.05s1.74.35 1.74 1.05v3.54h1.67v-6.33h-6.83v6.33h1.68ZM22.57 9.1h-6.83v2.27h6.83V9.1ZM2.17 17.7v-3.54c0-.7 1.74-1.05 1.74-1.05s1.74.35 1.74 1.05v3.54h1.67v-6.33H.5v6.33h1.67ZM7.33 9.1H.5v2.27h6.83V9.1ZM9.06 6.3c0-.54-.83-.8-.83-.8s-.83.27-.83.8v.96h1.66V6.3ZM15.74 6.3c0-.54-.83-.8-.83-.8s-.83.27-.83.8v.96h1.66V6.3Z"/></g>
<defs><clipPath id="a"><path fill="#fff" transform="translate(0 5)" d="M0 0h23.07v13.2H0z"/></clipPath></defs></svg>