<svg width="24" height="24" fill="none" xmlns="http://www.w3.org/2000/svg"><g clip-path="url(#a)" stroke="#000" stroke-linecap="round" stroke-linejoin="round"><path d="M17.89 19.91c-4.15.98-8.3.98-12.46 0v-6.78c4.15-1.53 8.3-1.53 12.46 0v6.78Z"/><path d="M7.23 12.56v-1.91c2.93-1.08 5.84-1.08 8.76 0v1.88M6.74 20.18v-4.22c.78-.33 1.56-.33 2.33 0v4.55M14.22 20.52v-4.53c.78-.37 1.56-.37 2.33 0v4.2M10.52 20.61v-5.29c.78-.37 1.56-.37 2.33 0v5.28M5.43 6.69h-3v13.22h3V6.69ZM20.89 6.69h-3v13.22h3V6.69ZM6.37 3.5v3.19H1.5V3.5h1.53v1.29h1.81V3.5h1.53ZM21.83 3.5v3.19h-4.87V3.5h1.53v1.29h1.81V3.5h1.53Z"/></g><defs><clipPath id="a"><path fill="#fff" transform="translate(1 3)" d="M0 0h21.33v18.14H0z"/></clipPath></defs></svg>