<svg xmlns="http://www.w3.org/2000/svg" width="24" height="24" fill="none"><g stroke="#000" stroke-linecap="round" stroke-linejoin="round" clip-path="url(#a)"><path d="M22.81 13.06H14.4v7.8h8.41v-7.8ZM9.91 13.06H1.5v7.8h8.41v-7.8ZM1.5 11.19v1.87M4.3 11.19v1.87M7.11 11.19v1.87M9.91 11.19v1.87M14.41 11.19v1.87M17.21 11.19v1.87M20.01 11.19v1.87M22.81 11.19v1.87"/><path d="M3.37 20.86v-5.27h1.4v5.27M6.64 20.86v-5.27h1.4v5.27M16.27 20.86v-5.27h1.4v5.27M19.54 20.86v-5.27h1.4v5.27M14.4 6.02H9.91v14.84h4.49V6.02Z"/><path d="M12.16 11.08a.97.97 0 1 0 0-1.94.97.97 0 0 0 0 1.94ZM9.91 7.92h4.49M9.91 12.3h4.49M9.91 18.29h4.49M13.32 3.62c0-.75-1.16-1.12-1.16-1.12S11 2.87 11 3.62v2.39h2.32V3.62Z"/></g><defs><clipPath id="a"><path fill="#fff" d="M1 2h22.31v19.36H1z"/></clipPath></defs></svg>