<svg width="24" height="24" fill="none" xmlns="http://www.w3.org/2000/svg"><g clip-path="url(#a)" stroke="#000" stroke-linecap="round" stroke-linejoin="round"><path d="M21.13 14.1H3.81v8.18h17.32V14.1Z"/><path d="M15.59 16.04H9.12v6.24h6.47v-6.24ZM2.5 14.1h19.94l-.92-2.8H3.42l-.92 2.8ZM4.69 11.3h15.56l-.92-2.8H5.6l-.91 2.8ZM6.96 8.5h11.01l-.91-2.8H7.88l-.92 2.8ZM9.31 5.7h6.32l-.92-2.8h-4.49l-.91 2.8ZM3.42 11.3V9.9M21.51 11.3V9.9M19.26 8.5V7.1M5.65 8.5V7.1M16.98 5.7V4.3M7.96 5.7V4.3M12.47 5.7V4.3M14.83 2.9V1.5M10.27 2.9V1.5M12.47 11.3V9.9M7.96 11.3V9.9M16.98 11.3V9.9M10.27 8.5V7.1M10.27 14.1v-1.4M14.83 8.5V7.1M14.83 14.1v-1.4M5.65 14.1v-1.4M19.26 14.1v-1.4"/></g><defs><clipPath id="a"><path fill="#fff" transform="translate(2 1)" d="M0 0h20.94v21.78H0z"/></clipPath></defs></svg>