<svg width="24" height="24" fill="none" xmlns="http://www.w3.org/2000/svg"><g clip-path="url(#a)" stroke="#000" stroke-linecap="round" stroke-linejoin="round"><path d="M8.75 23.27v-8.38c0-1.36 3.38-2.04 3.38-2.04s3.38.68 3.38 2.04v8.38h5.25V9.46H3.5v13.81h5.25Z"/><path d="M20.77 6.73H3.5v2.74h17.27V6.73Z"/><path d="M7.39 8.02H5.6v1.45h1.79V8.02ZM13.03 8.02h-1.79v1.45h1.79V8.02ZM18.67 8.02h-1.79v1.45h1.79V8.02ZM15.9 2.78c0-.85-3.77-1.28-3.77-1.28s-3.77.43-3.77 1.28v1.53h7.54V2.78ZM19.15 13.23c0-.67-1-1.01-1-1.01s-1 .34-1 1.01v1.2h2v-1.2ZM19.15 14.44h-2v7.34h2v-7.34ZM7.11 13.23c0-.67-1-1.01-1-1.01s-1 .34-1 1.01v1.2h2v-1.2ZM7.12 14.44h-2v7.34h2v-7.34ZM19.15 4.33H5.12v2.22h14.03V4.33Z"/></g><defs><clipPath id="a"><path fill="#fff" transform="translate(3 1)" d="M0 0h18.27v22.77H0z"/></clipPath></defs></svg>