<svg width="24" height="24" fill="none" xmlns="http://www.w3.org/2000/svg"><g clip-path="url(#a)" stroke="#000" stroke-linecap="round" stroke-linejoin="round"><path d="M17.91 13.83H3.96v1.61h13.95v-1.61ZM15.6 13.83l5.91-5.91 1.14 1.14-4.77 4.77M17.9 15.44l1.47 3.63M3.96 15.44l-1.61 3.63M13.77 6.75a5.578 5.578 0 0 0-7.3-2.97c-2.83 1.19-4.16 4.47-2.96 7.3l10.27-4.34-.01.01ZM6.47 3.78 5.93 2.5M8.64 8.92l2.03 4.81M21.53 20.4h-4.52M15.46 20.4h-3.91M9.86 20.4H6.97M18.46 21.97h-2.89M5.02 20.4H.5M8.42 21.97H3.9M14.23 21.97H9.71"/></g><defs><clipPath id="a"><path fill="#fff" transform="translate(0 2)" d="M0 0h23.15v20.47H0z"/></clipPath></defs></svg>