<svg width="24" height="24" fill="none" xmlns="http://www.w3.org/2000/svg"><g clip-path="url(#a)" stroke="#000" stroke-linecap="round" stroke-linejoin="round"><path d="M9.44 20.03V15.7c0-.85 2.13-1.28 2.13-1.28s2.13.43 2.13 1.28v4.33h2.05v-7.74H7.4v7.74h2.05-.01ZM15.75 9.59H7.4v2.69h8.35V9.59ZM15.74 9.59c1.56-1.56-4.17-5.09-4.17-5.09S5.9 8.09 7.4 9.59h8.35-.01Z"/><path d="M17.42 20.03v-3.54c0-.7 1.74-1.05 1.74-1.05s1.74.35 1.74 1.05v3.54h1.67V13.7h-6.83v6.33h1.68ZM22.57 11.42h-6.83v2.27h6.83v-2.27ZM2.17 20.03v-3.54c0-.7 1.74-1.05 1.74-1.05s1.74.35 1.74 1.05v3.54h1.67V13.7H.5v6.33h1.67ZM7.33 11.42H.5v2.27h6.83v-2.27ZM2.16 10.39c0-.54-.83-.8-.83-.8s-.83.27-.83.8v.96h1.66v-.96Z"/><path d="M22.57 10.46c0-.54-.83-.8-.83-.8s-.83.27-.83.8v.96h1.66v-.96Z"/></g><defs><clipPath id="a"><path fill="#fff" transform="translate(0 4)" d="M0 0h23.07v16.53H0z"/></clipPath></defs></svg>