<svg xmlns="http://www.w3.org/2000/svg" width="24" height="24" fill="none"><g stroke="#000" stroke-linecap="round" stroke-linejoin="round" clip-path="url(#a)"><path d="M8.39 22.53v-6.89c0-1.36 3.38-2.04 3.38-2.04s3.38.68 3.38 2.04v6.89h3.25V10.22H5.14v12.31h3.25ZM18.41 7.48H5.14v2.74h13.27V7.48Z"/><path d="M8.45 8.77H7.2v1.45h1.25V8.77ZM12.4 8.77h-1.25v1.45h1.25V8.77ZM16.34 8.77h-1.25v1.45h1.25V8.77ZM5.14 3.31H2.5v19.22h2.64V3.31ZM21.04 3.31H18.4v19.22h2.64V3.31ZM21.04 1.78C21.04.93 19.72.5 19.72.5S18.4.93 18.4 1.78v1.53h2.64V1.78ZM5.14 1.78C5.14.93 3.82.5 3.82.5S2.5.93 2.5 1.78v1.53h2.64V1.78ZM9.51 2.78c0-.85-1.27-1.28-1.27-1.28s-1.27.43-1.27 1.28v1.53h2.54V2.78ZM16.57 2.78c0-.85-1.27-1.28-1.27-1.28s-1.27.43-1.27 1.28v1.53h2.54V2.78ZM9.51 4.31H6.97v3.17h2.54V4.31ZM16.57 4.31h-2.54v3.17h2.54V4.31Z"/></g><defs><clipPath id="a"><path fill="#fff" d="M2 0h19.54v23.03H2z"/></clipPath></defs></svg>