<svg xmlns="http://www.w3.org/2000/svg" width="24" height="24" fill="none"><g stroke="#000" stroke-linecap="round" stroke-linejoin="round" clip-path="url(#a)"><path d="M9.44 15.7v-4.33c0-.85 2.13-1.28 2.13-1.28s2.13.43 2.13 1.28v4.33h2.05V7.96H7.4v7.74h2.05-.01ZM15.75 5.27H7.4v2.69h8.35V5.27ZM7.33 7.1H.5v2.27h6.83V7.1ZM4.71 21.03H.5V9.37h6.83v6.33"/><path d="M22.57 7.1h-6.83v2.27h6.83V7.1ZM15.74 15.7V9.37h6.83v11.66h-4.14M9.06 4.3c0-.54-.83-.8-.83-.8s-.83.27-.83.8v.96h1.66V4.3ZM15.74 4.3c0-.54-.83-.8-.83-.8s-.83.27-.83.8v.96h1.66V4.3Z"/><path d="M15.75 15.7H7.33v1.77h8.42V15.7ZM16.97 17.48H6.17v1.77h10.8v-1.77ZM18.43 19.25H4.71v1.77h13.72v-1.77Z"/></g><defs><clipPath id="a"><path fill="#fff" d="M0 3h23.07v18.53H0z"/></clipPath></defs></svg>