<svg width="24" height="24" fill="none" xmlns="http://www.w3.org/2000/svg"><g clip-path="url(#a)" stroke="#000" stroke-linecap="round" stroke-linejoin="round"><path d="M13.22 9.88c0-.44-.69-.67-.69-.67s-.69.22-.69.67v1.42h1.38V9.88ZM14.6 6.97c0-.44-.69-.67-.69-.67s-.69.22-.69.67v1.42h1.38V6.97ZM23.41 8.62c0-.44-.69-.67-.69-.67s-.69.22-.69.67v1.42h1.38V8.62ZM20.21 8.62c0-.44-.69-.67-.69-.67s-.69.22-.69.67v1.42h1.38V8.62ZM6.07 8.62c0-.44-.69-.67-.69-.67s-.69.22-.69.67v1.42h1.38V8.62ZM2.88 8.62c0-.44-.69-.67-.69-.67s-.69.22-.69.67v1.42h1.38V8.62ZM11.8 6.97c0-.44-.69-.67-.69-.67s-.69.22-.69.67v1.42h1.38V6.97ZM15.92 9.88c0-.44-.69-.67-.69-.67s-.69.22-.69.67v1.42h1.38V9.88ZM10.42 9.88c0-.44-.69-.67-.69-.67s-.69.22-.69.67v1.42h1.38V9.88ZM13.22 13.08c0-.44-.69-.67-.69-.67s-.69.22-.69.67v1.42h1.38v-1.42ZM15.92 13.08c0-.44-.69-.67-.69-.67s-.69.22-.69.67v1.42h1.38v-1.42ZM10.42 13.08c0-.44-.69-.67-.69-.67s-.69.22-.69.67v1.42h1.38v-1.42ZM5.38 12.26c0-.44-.69-.67-.69-.67s-.69.22-.69.67v1.42h1.38v-1.42ZM5.38 16.01c0-.27-.69-.41-.69-.41s-.69.14-.69.41v1.68h1.38v-1.68ZM13.22 16.27c0-.44-.69-.67-.69-.67s-.69.22-.69.67v1.42h1.38v-1.42ZM15.92 16.27c0-.44-.69-.67-.69-.67s-.69.22-.69.67v1.42h1.38v-1.42ZM10.42 16.27c0-.44-.69-.67-.69-.67s-.69.22-.69.67v1.42h1.38v-1.42ZM23.41 17.69H1.5v2.08h21.91v-2.08Z"/><path d="M7.89 6.31c0-1.2 4.57-1.81 4.57-1.81s4.57.6 4.57 1.81V17.7H7.9V6.31h-.01ZM7.89 10.04H1.5v7.65h6.39v-7.65ZM20.9 12.26c0-.44-.69-.67-.69-.67s-.69.22-.69.67v1.42h1.38v-1.42ZM20.9 16.01c0-.27-.69-.41-.69-.41s-.69.14-.69.41v1.68h1.38v-1.68Z"/><path d="M23.41 10.04h-6.39v7.65h6.39v-7.65Z"/></g><defs><clipPath id="a"><path fill="#fff" transform="translate(1 4)" d="M0 0h22.91v16.27H0z"/></clipPath></defs></svg>