<svg width="24" height="24" fill="none" xmlns="http://www.w3.org/2000/svg"><g clip-path="url(#a)" stroke="#000" stroke-linecap="round" stroke-linejoin="round"><path d="M14.09 4.5H8.98v16.88h5.11V4.5Z"/><path d="M11.53 10.25a1.1 1.1 0 1 0 0-2.2 1.1 1.1 0 0 0 0 2.2ZM8.98 6.66h5.11M8.98 11.65h5.11M8.98 18.45h5.11M12.85 1.78C12.85.93 11.53.5 11.53.5s-1.32.43-1.32 1.28V4.5h2.64V1.78ZM21.11 21.38H2.5v1.69h18.61v-1.69ZM8.98 4.5v-2M14.09 4.5v-2M4.26 6.06s1.24-.16 1.47.61c0 0-.18-1.5 1.02-1.85M16.37 9.47s1.24-.16 1.47.61c0 0-.18-1.5 1.02-1.85"/></g><defs><clipPath id="a"><path fill="#fff" transform="translate(2)" d="M0 0h19.61v23.57H0z"/></clipPath></defs></svg>