<svg xmlns="http://www.w3.org/2000/svg" width="24" height="24" fill="none"><g stroke="#000" stroke-linecap="round" stroke-linejoin="round" clip-path="url(#a)"><path d="M9.71 19.68v-4.97c0-.98 2.44-1.47 2.44-1.47s2.44.49 2.44 1.47v4.97h2.35v-8.89H7.37v8.89h2.35-.01Z"/><path d="M16.95 8.82H7.37v1.98h9.58V8.82ZM7.37 10.72H1.5v8.96h5.87v-8.96ZM9.2 5.42c0-.62-.92-.92-.92-.92s-.92.31-.92.92v1.11h1.83V5.42h.01ZM16.95 5.42c0-.62-.92-.92-.92-.92s-.92.31-.92.92v1.11h1.83V5.42h.01Z"/><path d="M5.87 17.24c0-1.36-1.44-2.04-1.44-2.04s-1.44.68-1.44 2.04v2.44h2.88v-2.44ZM22.82 10.72h-5.87v8.96h5.87v-8.96Z"/><path d="M21.32 17.24c0-1.36-1.44-2.04-1.44-2.04s-1.44.68-1.44 2.04v2.44h2.88v-2.44ZM9.2 6.53H7.37v2.29H9.2V6.53ZM16.95 6.53h-1.83v2.29h1.83V6.53Z"/></g><defs><clipPath id="a"><path fill="#fff" d="M1 4h22.32v16.18H1z"/></clipPath></defs></svg>