<svg xmlns="http://www.w3.org/2000/svg" width="24" height="24" fill="none"><g stroke="#000" stroke-linecap="round" stroke-linejoin="round" clip-path="url(#a)"><path d="M10.14 23.05v-2.76c0-.54 1.36-.82 1.36-.82s1.36.27 1.36.82v2.76h1.3v-4.94H8.84v4.94h1.3Z"/><path d="M14.16 16.4H8.84v1.72h5.32V16.4ZM14.16 16.4c1-1-2.66-3.25-2.66-3.25s-3.62 2.29-2.66 3.25h5.32ZM14.16 7.74V6.46H8.84v1.28"/><path d="M14.16 4.75H8.84v1.72h5.32V4.75ZM14.16 4.75c1-1-2.66-3.25-2.66-3.25S7.88 3.79 8.84 4.75h5.32ZM5.69 15.68v-2.09c0-.54 1.36-.82 1.36-.82s1.36.27 1.36.82v2.05"/><path d="M4.39 15.33v-3.91h5.32v3.08M8.92 16.35H8.8M5.25 16.35H5.2M9.71 9.7H4.39v1.72h5.32V9.7ZM9.71 9.7c1-1-2.66-3.25-2.66-3.25S3.43 8.74 4.39 9.7h5.32ZM14.69 15.68v-2.09c0-.54 1.36-.82 1.36-.82s1.36.27 1.36.82v2.05"/><path d="M13.39 14.56v-3.14h5.32v3.91M18.7 9.7h-5.32v1.72h5.32V9.7ZM18.71 9.7c1-1-2.66-3.25-2.66-3.25s-3.62 2.29-2.66 3.25h5.32ZM8.83 16.78H5.28v4.99h3.55v-4.99ZM8.68 15.94c-.08-.1-.17-.2-.27-.29-.56-.54-1.35-1.03-1.35-1.03s-.8.51-1.37 1.07c-.21.2-.38.42-.47.61-.01.03-.02.04-.03.06-.04.13-.04.24.02.34M8.93 16.4s0-.03-.01-.04M5.16 16.78H1.61v4.99h3.55v-4.99Z"/><path d="M5.16 16.78c.66-.66-1.78-2.17-1.78-2.17S.96 16.14 1.6 16.78H5.16ZM17.82 16.78h-3.55v4.99h3.55v-4.99ZM14.19 16.37v.01c-.04.15-.02.29.09.4h3.55c.66-.66-1.78-2.16-1.78-2.16s-1.26.8-1.72 1.48M21.48 16.78h-3.55v4.99h3.55v-4.99Z"/><path d="M21.48 16.78c.66-.66-1.78-2.17-1.78-2.17s-2.42 1.53-1.78 2.17H21.48Z"/></g><defs><clipPath id="a"><path fill="#fff" d="M1 1h21.1v22.55H1z"/></clipPath></defs></svg>