<svg xmlns="http://www.w3.org/2000/svg" width="24" height="24" fill="none"><g stroke="#000" stroke-linecap="round" stroke-linejoin="round" clip-path="url(#a)"><path d="M9.54 18.29v-4.21c0-.83 2.07-1.25 2.07-1.25s2.07.42 2.07 1.25v4.21h1.99v-7.52H7.56v7.52h1.99-.01ZM15.67 9.09H7.56v1.67h8.11V9.09ZM.5 7.82c2.35-1.05 4.7-1.05 7.06 0v10.5c-2.35.49-4.7.49-7.06 0V7.82Z"/><path d="M.5 9.41c2.35-1.05 4.7-1.05 7.06 0M15.67 7.82c2.35-1.05 4.7-1.05 7.06 0v10.5c-2.35.49-4.7.49-7.06 0V7.82Z"/><path d="M15.67 9.41c2.35-1.05 4.7-1.05 7.06 0M15.67 6.47H7.56l.61-1.97h6.89l.61 1.97ZM8.57 6.47v2.62M14.65 6.47v2.62M11.61 6.47v2.62M10.12 6.47v2.62M13.17 6.47v2.62"/></g><defs><clipPath id="a"><path fill="#fff" d="M0 4h23.22v15.19H0z"/></clipPath></defs></svg>