<svg width="24" height="24" fill="none" xmlns="http://www.w3.org/2000/svg"><g clip-path="url(#a)" stroke="#000" stroke-linecap="round" stroke-linejoin="round"><path d="M22.66 18.21H17.9M16.27 18.21h-4.12M10.37 18.21H7.32M19.43 19.87h-3.05M5.26 18.21H.5M8.84 19.87H4.08M14.97 19.87H10.2M6.08 5.91s1.24-.16 1.47.61c0 0-.18-1.5 1.02-1.85M20.29 16.56H3.87l-3-4.27h21.42c-1.52 1.42-2.18 2.84-2 4.27ZM7.65 12.29v-1.92h11.68v1.92"/><path d="M17.74 10.37V8.31h-6.16v2.06M5.08 14.43h.5M7.75 14.43h8.68M17.52 14.43h.5M14.66 8.31V4.5l2.07 1.07-2.07.84"/></g><defs><clipPath id="a"><path fill="#fff" transform="translate(0 4)" d="M0 0h23.16v16.37H0z"/></clipPath></defs></svg>